<?xml version="1.0" encoding="utf-8"?>
<!-- Generator: Adobe Illustrator 19.2.1, SVG Export Plug-In . SVG Version: 6.00 Build 0)  -->
<svg version="1.1" id="layer" xmlns="http://www.w3.org/2000/svg" xmlns:xlink="http://www.w3.org/1999/xlink" x="0px" y="0px"
	 viewBox="0 0 652 652" style="enable-background:new 0 0 652 652;" xml:space="preserve">
<style type="text/css">
	.st0{fill:#23A994;}
</style>
<path id="Path_7_" class="st0" d="M95.4,322.3c-4.5-4.5-10.5-7.1-16.9-7.4l-12.9,0v20l8.2,8.3v-20h4c7.7,0.1,14.4,5.3,16.3,12.8
	c1.9,7.4-1.4,15.3-8.1,19.1c-6.7,3.8-15.1,2.7-20.5-2.8l-27-27l27-27c5.1-5,12.7-6.4,19.2-3.4c6.5,3,10.4,9.7,9.9,16.8v0.1l7.2,5.8
	l0.1-0.3c3.2-11.1-1.5-22.9-11.5-28.8c-9.9-5.9-22.6-4.2-30.7,3.9l-32.9,32.8l32.8,32.8c9.9,9.9,25.9,9.9,35.8,0
	C105.3,348.2,105.3,332.2,95.4,322.3L95.4,322.3z"/>
<path d="M303.8,312.5v3.8c-4.1-3.1-9-4.7-14.2-4.7c-13,0-22.8,9.8-22.8,23s9.7,23,22.8,23c5.1,0.1,10.1-1.6,14.2-4.7v3.8h8.6v-44.1
	H303.8z M289.6,349.1c-8.1,0-13.9-6.5-13.9-14.5c0-8.1,5.7-14.5,13.9-14.5c8.1,0,13.9,6.5,13.9,14.5
	C303.5,342.6,297.8,349.1,289.6,349.1z M201,311.5c13,0,22.8,9.8,22.8,23c0,13.1-9.7,22.9-22.8,22.9s-22.8-9.8-22.8-22.9
	C178.2,321.4,187.9,311.5,201,311.5z M201,349c8.1,0,13.9-6.5,13.9-14.5c0-8.1-5.7-14.5-13.9-14.5c-8.1,0-13.9,6.5-13.9,14.5
	C187.1,342.6,192.8,349,201,349z M271.8,356.5h-11.9L238.1,335v21.6h-8.9V290h8.9v39.4l18.4-16.9H269l-22,19.9L271.8,356.5z
	 M369.8,312.5h8.9v44h-8.9V312.5z M410.5,320.4c-1.1-0.3-2.3-0.4-3.5-0.4c-4.6,0-9.5,3.2-11.9,7.4v29.1h-8.9v-44h8.6v5
	c2.2-3,6.8-6,13.2-6c1.2,0,2.3,0.1,3.5,0.3L410.5,320.4z M419.6,336.4c0.5,7.5,6.8,13.4,14.3,13.3c6.6,0,10.1-3.2,12.7-6l5.8,5.5
	c-3.3,4.2-9.6,8.3-18.5,8.3c-12.8,0-22.8-9.7-22.8-23s9-23,21.5-23c12.3,0,21.2,9.9,21.2,23c0,0.6,0,1.3-0.1,1.9L419.6,336.4z
	 M420.3,328.8h24c-1.3-5.6-6.4-9.6-11.6-9.6C426.9,319.3,421.8,323.2,420.3,328.8L420.3,328.8z M501.2,356.5h-11.9L467.5,335v21.6
	h-8.9V290h8.9v39.4l18.4-16.9h12.6l-22,19.9L501.2,356.5z M512.1,320.4h14.1v-8h-14.1v-12.2h-8.9v43.6c0,5.2,3.1,9.9,7.9,11.8
	c0.2,0.1,0.4,0.1,0.6,0.2c2.4,1,4.9,1.5,7.5,1.5c2.3,0,4.7-0.3,6.9-0.9l-1.8-8.1c-1.6,0.4-3.2,0.6-4.9,0.6c-0.3,0-0.7,0-1-0.1l0,0
	c-0.7-0.1-1.4-0.2-2.1-0.4c-1.2-0.3-2.2-1-3-1.9c-1.1-1.3-1.3-3.3-1.3-5.6L512.1,320.4z M537.1,344.3c3.6,0,6.6,2.9,6.6,6.6
	s-2.9,6.6-6.6,6.6c-3.6,0-6.6-2.9-6.6-6.6c0-1.7,0.7-3.4,1.9-4.7C533.7,345,535.3,344.3,537.1,344.3z M552.6,344.8
	c4.1,3.2,8.6,4.9,13,4.9c3.8,0,7.7-2.1,7.7-5.5c0-5.1-7.3-5.3-13.8-7.5c-5.3-1.8-10.1-5.2-10.1-11.3c0-9.5,8.4-13.8,16.3-13.8
	c6.5,0,11.2,2.1,14.6,4.9l-4.6,6.4c-2.7-2.2-6-3.4-9.5-3.5c-4.3,0-8,2.1-8,5.5c0,3,3.5,4,7.9,5.2c6.9,1.8,16,4.9,16,14
	c0,8.3-7.8,13.5-16.4,13.5c-6.5,0.1-12.8-2-17.8-6.1L552.6,344.8z M592.8,336.6c0.5,7.5,6.7,13.3,14.2,13.3c6.6,0,10.1-3.2,12.6-6
	l5.8,5.5c-3.3,4.2-9.6,8.3-18.6,8.3c-12.8,0-22.8-9.7-22.8-23c0-13.2,9-23,21.5-23c12.3,0,21.2,9.9,21.2,23c0,0.6,0,1.2-0.1,1.9
	H592.8z M593.6,329.1h24c-1.3-5.6-6.4-9.6-11.6-9.6C600.1,319.5,595,323.5,593.6,329.1L593.6,329.1z M151.9,311.6
	c-5-0.1-9.9,1.5-13.9,4.5v-26h-8.9v66.5h8.6l-0.1-3.8c4.1,3.2,9.1,4.9,14.3,4.8c13,0,22.8-9.8,22.8-23
	C174.7,321.4,165,311.6,151.9,311.6z M151.9,320c8.2,0,13.9,6.5,13.9,14.5c0,8.1-5.7,14.5-13.9,14.5s-13.9-6.5-13.9-14.5l0,0
	C138.1,326.5,143.8,320,151.9,320z M353.8,290v26c-4-3-8.9-4.5-13.9-4.5c-13,0-22.7,9.9-22.7,23s9.7,23,22.8,23
	c5.1,0.1,10.2-1.6,14.2-4.8l-0.1,3.8h8.6V290H353.8z M339.9,349.1c-8.1,0-13.9-6.5-13.9-14.5c0-8.1,5.7-14.5,13.9-14.5
	c8.1,0,13.9,6.5,13.9,14.5C353.8,342.6,348,349.1,339.9,349.1z M374.3,294.7c-1.6,0-3,0.6-4.1,1.7c-1.1,1.1-1.7,2.6-1.7,4.2
	c0,1.5,0.6,3,1.7,4.1c1.1,1.1,2.6,1.7,4.1,1.7c1.6,0,3-0.6,4.2-1.7c1.1-1.1,1.7-2.6,1.7-4.1c0-1.6-0.6-3.1-1.7-4.2
	S375.8,294.7,374.3,294.7L374.3,294.7z"/>
</svg>
